<svg width="283" height="14" viewBox="0 0 283 14" fill="none" xmlns="http://www.w3.org/2000/svg">
<g filter="url(#filter0_f_127_146)">
<path d="M5.785 1.119L6.799 1.301C6.279 3.55 5.421 5.669 4.368 7.047C4.173 6.891 3.705 6.631 3.432 6.501C4.537 5.227 5.33 3.199 5.785 1.119ZM7.93 4.304H8.424V6.046C8.424 7.203 9.061 10.648 12.597 12.169C12.415 12.403 12.116 12.806 11.96 13.04C9.23 11.792 8.125 9.101 7.917 7.879C7.696 9.114 6.513 11.727 3.367 13.04C3.25 12.832 2.951 12.429 2.769 12.247C6.734 10.687 7.41 7.281 7.41 6.046V4.304H7.93ZM0.481 10.362C1.235 9.66 2.418 8.464 3.523 7.307L4.056 8.152C3.094 9.192 2.002 10.323 1.118 11.168L0.481 10.362ZM0.897 2.653L1.586 1.951C2.431 2.497 3.484 3.316 3.991 3.875L3.263 4.668C2.769 4.096 1.742 3.238 0.897 2.653ZM5.811 3.433H11.661V4.395H5.369L5.811 3.433ZM11.323 3.433H11.479L11.661 3.368L12.376 3.771C12.038 5.019 11.427 6.371 10.946 7.242C10.738 7.125 10.361 6.93 10.114 6.826C10.543 6.046 11.102 4.668 11.323 3.667V3.433ZM18.59 1.873H24.973V2.809H18.59V1.873ZM22.386 5.747H23.374V11.792C23.374 12.403 23.231 12.702 22.789 12.858C22.347 13.001 21.606 13.014 20.332 13.014C20.293 12.741 20.163 12.338 20.02 12.052C20.943 12.078 21.814 12.078 22.048 12.065C22.308 12.052 22.386 12 22.386 11.779V5.747ZM18.018 5.461H25.35V6.384H18.018V5.461ZM15.418 6.462L16.276 5.617L16.393 5.669V13.079H15.418V6.462ZM16.926 3.862L17.849 4.213C16.835 5.864 15.301 7.541 13.936 8.633C13.793 8.438 13.455 8.009 13.247 7.827C14.599 6.865 16.029 5.357 16.926 3.862ZM16.393 1.08L17.329 1.457C16.458 2.601 15.119 3.862 13.962 4.694C13.819 4.486 13.559 4.109 13.39 3.914C14.469 3.186 15.73 2.016 16.393 1.08ZM28.197 3.095C30.004 3.316 31.707 3.342 33.033 3.212C34.099 3.121 35.165 2.9 36.101 2.588L36.244 3.537C35.399 3.784 34.294 4.005 33.254 4.096C31.941 4.226 30.121 4.226 28.262 4.044L28.197 3.095ZM27.937 5.76C30.16 5.994 32.37 5.955 33.891 5.773C35.126 5.643 36.179 5.383 36.868 5.175L37.037 6.137C36.322 6.332 35.334 6.527 34.242 6.657C32.643 6.865 30.238 6.904 28.002 6.735L27.937 5.76ZM32.383 2.926C32.279 2.549 32.162 2.146 32.019 1.769L33.124 1.626C33.254 2.718 33.657 4.031 33.982 4.954C34.333 5.968 34.905 7.216 35.581 8.217C35.724 8.425 35.88 8.607 36.075 8.776L35.529 9.569C34.801 9.387 33.592 9.257 32.695 9.166L32.773 8.373C33.475 8.438 34.32 8.529 34.723 8.581C34.008 7.463 33.462 6.215 33.085 5.162C32.76 4.265 32.565 3.576 32.383 2.926ZM29.835 8.568C29.523 9.01 29.289 9.452 29.289 10.037C29.289 11.103 30.238 11.649 32.279 11.649C33.488 11.649 34.437 11.558 35.386 11.376L35.334 12.403C34.424 12.559 33.41 12.637 32.292 12.637C29.757 12.637 28.327 11.883 28.301 10.206C28.301 9.465 28.522 8.919 28.821 8.347L29.835 8.568ZM44.551 1.782C44.473 2.068 44.382 2.562 44.33 2.809C44.135 3.745 43.862 5.214 43.498 6.514C43.03 8.36 42.159 11.051 41.47 12.468L40.339 12.091C41.119 10.739 42.029 8.1 42.523 6.267C42.835 5.071 43.173 3.433 43.264 2.757C43.316 2.393 43.342 1.951 43.316 1.678L44.551 1.782ZM41.678 3.953C43.108 3.953 45.019 3.719 46.631 3.316V4.33C45.019 4.694 43.056 4.915 41.652 4.915C41.08 4.915 40.625 4.902 40.144 4.863L40.118 3.849C40.729 3.927 41.197 3.953 41.678 3.953ZM45.786 5.734C46.462 5.669 47.333 5.63 48.165 5.63C48.919 5.63 49.712 5.656 50.414 5.734L50.388 6.722C49.712 6.644 48.958 6.566 48.191 6.566C47.385 6.566 46.579 6.618 45.786 6.709V5.734ZM46.046 8.893C45.942 9.322 45.864 9.725 45.864 10.063C45.864 10.674 46.215 11.272 48.061 11.272C48.919 11.272 49.803 11.181 50.609 11.025L50.57 12.065C49.868 12.169 48.997 12.247 48.048 12.247C46.007 12.247 44.889 11.623 44.889 10.336C44.889 9.842 44.967 9.348 45.084 8.802L46.046 8.893ZM54.639 2.939C54.574 3.238 54.535 3.862 54.522 4.2C54.509 5.006 54.522 6.202 54.613 7.268C54.834 9.439 55.458 10.882 56.394 10.882C57.057 10.882 57.668 9.543 58.006 8.243L58.825 9.166C58.032 11.363 57.252 12.117 56.368 12.117C55.133 12.117 53.963 10.895 53.599 7.528C53.482 6.41 53.456 4.824 53.456 4.07C53.456 3.771 53.456 3.212 53.378 2.913L54.639 2.939ZM61.399 3.29C62.569 4.798 63.505 7.567 63.7 9.764L62.647 10.18C62.426 7.84 61.633 5.162 60.398 3.641L61.399 3.29ZM70.603 1.353H71.63V11.415H70.603V1.353ZM66.04 4.187H67.028V12.884H66.04V4.187ZM75.348 4.174H76.349V12.832H75.348V4.174ZM66.521 10.83H75.79V11.831H66.521V10.83ZM83.122 1.912C83.07 2.146 83.018 2.432 82.966 2.679C82.875 3.147 82.706 4.213 82.524 5.019C82.082 6.852 81.159 10.089 79.69 12.455L78.624 12.039C80.106 10.05 81.146 6.579 81.497 4.993C81.744 3.953 81.913 2.783 81.913 1.782L83.122 1.912ZM87.594 3.407C88.4 4.46 89.531 6.826 89.973 8.022L88.959 8.503C88.582 7.177 87.555 4.915 86.645 3.836L87.594 3.407ZM78.442 4.759C78.845 4.785 79.183 4.772 79.599 4.759C80.574 4.733 83.213 4.447 84.097 4.447C85.254 4.447 86.203 4.889 86.203 6.644C86.203 8.191 85.995 10.258 85.449 11.337C85.046 12.208 84.396 12.429 83.551 12.429C83.057 12.429 82.433 12.338 82.03 12.234L81.848 11.155C82.394 11.324 83.083 11.415 83.447 11.415C83.928 11.415 84.318 11.311 84.578 10.752C84.994 9.868 85.202 8.178 85.202 6.774C85.202 5.578 84.656 5.357 83.824 5.357C82.953 5.357 80.509 5.656 79.716 5.734C79.417 5.773 78.884 5.838 78.546 5.89L78.442 4.759ZM87.737 1.522C88.062 1.99 88.53 2.783 88.803 3.316L88.101 3.628C87.841 3.095 87.399 2.315 87.035 1.821L87.737 1.522ZM89.167 1.002C89.518 1.483 90.012 2.302 90.272 2.783L89.557 3.095C89.284 2.523 88.855 1.782 88.478 1.301L89.167 1.002ZM93.886 4.577V5.916H100.191V4.577H93.886ZM93.886 6.735V8.087H100.191V6.735H93.886ZM93.886 2.419V3.745H100.191V2.419H93.886ZM92.937 1.548H101.179V8.971H92.937V1.548ZM97.877 8.334H98.865V11.571C98.865 11.948 98.969 12.013 99.528 12.013C99.801 12.013 101.114 12.013 101.465 12.013C101.998 12.013 102.089 11.792 102.141 10.167C102.349 10.349 102.778 10.505 103.051 10.57C102.934 12.468 102.648 12.949 101.543 12.949C101.27 12.949 99.697 12.949 99.437 12.949C98.202 12.949 97.877 12.65 97.877 11.571V8.334ZM94.744 8.607H95.797C95.524 10.921 94.744 12.338 91.611 13.053C91.52 12.806 91.247 12.403 91.052 12.195C93.912 11.623 94.523 10.505 94.744 8.607ZM104.416 5.214C104.897 5.136 105.365 4.993 105.859 4.85C106.951 4.499 109.512 3.563 111.41 3.563C113.555 3.563 115.271 4.811 115.271 6.982C115.271 10.102 112.177 11.597 108.173 11.831L107.705 10.752C111.098 10.661 114.14 9.621 114.14 6.969C114.14 5.604 113.139 4.525 111.384 4.525C109.239 4.525 105.937 5.955 104.897 6.371L104.416 5.214ZM122.096 1.86C122.044 2.107 121.992 2.38 121.94 2.64C121.862 3.108 121.68 4.174 121.511 4.98C121.069 6.8 120.133 10.037 118.664 12.416L117.611 11.987C119.093 10.011 120.133 6.54 120.484 4.941C120.718 3.914 120.9 2.744 120.9 1.743L122.096 1.86ZM126.581 3.251C127.387 4.304 128.518 6.696 128.947 7.905L127.946 8.386C127.556 7.047 126.542 4.746 125.632 3.68L126.581 3.251ZM117.416 4.72C117.832 4.733 118.17 4.733 118.586 4.72C119.548 4.694 122.187 4.395 123.071 4.395C124.228 4.395 125.177 4.837 125.177 6.605C125.177 8.152 124.969 10.219 124.436 11.298C124.02 12.169 123.37 12.377 122.538 12.377C122.031 12.377 121.42 12.286 121.004 12.195L120.835 11.103C121.381 11.272 122.057 11.376 122.421 11.376C122.902 11.376 123.292 11.272 123.565 10.7C123.981 9.829 124.176 8.126 124.176 6.722C124.176 5.539 123.63 5.318 122.798 5.318C121.927 5.318 119.496 5.604 118.703 5.682C118.404 5.721 117.858 5.786 117.533 5.838L117.416 4.72ZM132.444 2.432C132.73 2.458 133.094 2.471 133.354 2.471C134.043 2.471 137.124 2.38 137.813 2.315C138.203 2.276 138.385 2.25 138.528 2.198L139.126 2.965C138.892 3.121 138.632 3.29 138.385 3.485C137.748 3.979 135.98 5.5 134.966 6.332C135.564 6.137 136.188 6.072 136.773 6.072C138.931 6.072 140.478 7.359 140.478 9.114C140.478 11.207 138.749 12.572 135.993 12.572C134.225 12.572 133.146 11.805 133.146 10.713C133.146 9.829 133.952 9.023 135.148 9.023C136.877 9.023 137.748 10.245 137.839 11.558L136.903 11.714C136.825 10.609 136.188 9.816 135.148 9.816C134.55 9.816 134.095 10.18 134.095 10.635C134.095 11.272 134.81 11.649 135.837 11.649C138.047 11.649 139.438 10.739 139.438 9.114C139.438 7.827 138.216 6.878 136.513 6.878C134.355 6.878 133.185 7.788 131.547 9.465L130.793 8.711C131.872 7.827 133.549 6.423 134.29 5.786C135.018 5.188 136.656 3.823 137.306 3.238C136.617 3.277 134.017 3.381 133.341 3.42C133.042 3.446 132.756 3.459 132.47 3.498L132.444 2.432ZM144.573 1.964H153.088V12.845H152.061V2.952H145.574V12.897H144.573V1.964ZM145.236 6.475H152.49V7.437H145.236V6.475ZM145.223 11.077H152.516V12.052H145.223V11.077ZM156.052 3.823H167.401V4.811H156.052V3.823ZM158.652 9.621H164.71V10.609H158.652V9.621ZM161.187 1.093H162.214V13.04H161.187V1.093ZM160.888 4.148L161.759 4.447C160.602 7.203 158.561 9.686 156.312 10.999C156.156 10.752 155.831 10.388 155.61 10.193C157.781 9.062 159.848 6.644 160.888 4.148ZM162.539 4.187C163.566 6.657 165.607 9.023 167.856 10.102C167.609 10.31 167.271 10.7 167.115 10.973C164.814 9.699 162.812 7.216 161.668 4.486L162.539 4.187ZM171.405 3.758V4.681H177.931V3.758H171.405ZM171.405 2.198V3.095H177.931V2.198H171.405ZM170.456 1.496H178.893V5.37H170.456V1.496ZM168.909 6.098H180.362V6.904H168.909V6.098ZM174.681 7.723H179.309V8.516H174.681V7.723ZM170.599 7.801H173.81V8.529H170.599V7.801ZM170.599 9.439H173.81V10.167H170.599V9.439ZM176.046 8.451C176.8 10.31 178.464 11.727 180.674 12.273C180.466 12.455 180.206 12.806 180.076 13.04C177.788 12.364 176.111 10.817 175.253 8.685L176.046 8.451ZM179.01 7.723H179.192L179.361 7.684L179.959 7.931C179.101 10.57 177.008 12.195 174.746 12.975C174.642 12.741 174.395 12.39 174.213 12.208C176.293 11.584 178.295 10.063 179.01 7.879V7.723ZM168.792 11.428C170.066 11.324 171.951 11.116 173.784 10.908V11.714C172.029 11.922 170.222 12.143 168.883 12.299L168.792 11.428ZM173.29 6.358H174.226V13.04H173.29V6.358ZM170.027 6.371H170.937V11.662H170.027V6.371ZM181.896 4.824H193.323V5.812H181.896V4.824ZM188.227 5.214C189.072 8.36 190.84 10.986 193.544 12.104C193.297 12.325 192.972 12.741 192.803 13.014C189.995 11.688 188.227 8.945 187.252 5.448L188.227 5.214ZM187.083 1.093H188.136C188.084 4.499 188.058 10.427 182.377 13.027C182.221 12.767 181.909 12.416 181.636 12.221C187.161 9.816 187.057 4.213 187.083 1.093ZM201.344 3.134C201.175 4.486 200.915 6.007 200.512 7.398C199.719 10.063 198.679 11.441 197.483 11.441C196.313 11.441 195.156 10.115 195.156 7.957C195.156 5.136 197.665 2.679 200.85 2.679C203.892 2.679 205.829 4.824 205.829 7.463C205.829 10.18 204.035 12 200.941 12.403L200.343 11.441C200.759 11.402 201.149 11.35 201.461 11.285C203.125 10.908 204.763 9.66 204.763 7.411C204.763 5.331 203.32 3.615 200.824 3.615C197.964 3.615 196.183 5.968 196.183 7.879C196.183 9.517 196.924 10.245 197.509 10.245C198.12 10.245 198.822 9.361 199.485 7.164C199.862 5.929 200.135 4.46 200.265 3.108L201.344 3.134ZM212.888 1.353H213.915V11.415H212.888V1.353ZM208.325 4.187H209.313V12.884H208.325V4.187ZM217.633 4.174H218.634V12.832H217.633V4.174ZM208.806 10.83H218.075V11.831H208.806V10.83ZM225.446 8.529H230.62V9.283H225.446V8.529ZM224.237 2.107H231.959V2.848H224.237V2.107ZM224.549 3.68H231.634V4.395H224.549V3.68ZM223.834 5.305H232.336V6.046H223.834V5.305ZM225.446 10.271H230.659V10.999H225.446V10.271ZM224.783 6.813H230.62V7.567H225.693V13.027H224.783V6.813ZM230.386 6.813H231.322V11.948C231.322 12.442 231.218 12.702 230.854 12.845C230.49 12.988 229.905 13.001 228.982 12.988C228.943 12.754 228.813 12.39 228.696 12.143C229.346 12.169 229.97 12.169 230.152 12.156C230.334 12.156 230.386 12.104 230.386 11.935V6.813ZM227.565 1.08H228.527V5.539H227.565V1.08ZM221.858 1.08H222.755V13.027H221.858V1.08ZM220.831 3.589L221.559 3.693C221.52 4.707 221.299 6.215 221 7.19L220.246 6.943C220.545 6.046 220.753 4.616 220.831 3.589ZM222.872 3.251L223.522 2.991C223.808 3.589 224.12 4.356 224.237 4.837L223.561 5.162C223.431 4.668 223.132 3.862 222.872 3.251ZM240.058 6.111H244.309V6.917H240.058V6.111ZM239.564 1.691H244.218V2.562H240.461V13.053H239.564V1.691ZM243.75 1.691H244.66V4.2C244.66 4.681 244.556 4.941 244.153 5.084C243.75 5.227 243.1 5.24 242.099 5.24C242.06 4.98 241.93 4.629 241.8 4.382C242.606 4.408 243.282 4.408 243.49 4.395C243.698 4.382 243.75 4.33 243.75 4.187V1.691ZM241.332 6.644C242.034 9.075 243.503 11.298 245.453 12.247C245.232 12.442 244.933 12.793 244.777 13.04C242.775 11.909 241.332 9.543 240.565 6.839L241.332 6.644ZM244.01 6.111H244.192L244.361 6.059L244.959 6.28C244.452 9.101 243.165 11.662 241.085 13.066C240.942 12.845 240.656 12.572 240.435 12.403C242.385 11.129 243.607 8.698 244.01 6.319V6.111ZM233.831 2.419H238.654V3.264H233.831V2.419ZM233.675 9.53H238.823V10.375H233.675V9.53ZM233.363 4.564H239.148V5.409H233.363V4.564ZM233.545 7.268H238.992V8.113H233.545V7.268ZM235.833 1.106H236.743V4.863H235.833V1.106ZM235.833 7.619H236.743V13.014H235.833V7.619ZM237.588 5.357L238.42 5.578C238.16 6.202 237.913 6.878 237.666 7.333L236.938 7.112C237.159 6.631 237.445 5.864 237.588 5.357ZM234.273 5.565L235.014 5.383C235.3 5.929 235.56 6.67 235.625 7.125L234.845 7.346C234.78 6.878 234.533 6.137 234.273 5.565ZM255.125 6.033C255.125 9.491 254.371 11.272 251.407 12.611L250.536 11.779C252.902 10.882 254.072 9.764 254.072 6.111V2.952C254.072 2.445 254.033 2.016 254.007 1.899H255.19C255.177 2.029 255.125 2.445 255.125 2.952V6.033ZM250.432 1.977C250.419 2.094 250.38 2.471 250.38 2.913V7.684C250.38 8.165 250.419 8.737 250.432 8.854H249.275C249.288 8.737 249.34 8.178 249.34 7.684V2.913C249.34 2.64 249.314 2.276 249.275 1.977H250.432ZM246.636 4.499C246.753 4.512 247.39 4.59 247.936 4.59H256.542C257.127 4.59 257.556 4.538 257.738 4.512V5.617C257.595 5.604 257.127 5.578 256.555 5.578H247.936C247.364 5.578 246.779 5.617 246.636 5.617V4.499ZM259.818 7.307C262.067 6.709 264.043 5.786 265.486 4.889C266.851 4.031 268.151 2.913 269.048 1.821L269.919 2.64C268.801 3.797 267.436 4.889 265.915 5.838C264.485 6.722 262.418 7.671 260.325 8.321L259.818 7.307ZM265.278 5.422L266.396 5.084V11.025C266.396 11.506 266.422 12.156 266.487 12.403H265.2C265.239 12.156 265.278 11.506 265.278 11.025V5.422ZM276.003 10.856C276.003 10.128 276.003 4.382 276.003 3.303C276.003 2.926 275.977 2.354 275.912 1.938H277.186C277.134 2.341 277.095 2.9 277.095 3.303C277.095 5.318 277.108 10.245 277.108 10.856C277.108 11.272 277.134 11.974 277.186 12.403H275.925C275.99 11.987 276.003 11.337 276.003 10.856ZM276.861 5.357C278.577 5.851 281.203 6.852 282.646 7.554L282.191 8.659C280.709 7.866 278.278 6.943 276.861 6.501V5.357Z" fill="white"/>
</g>
<defs>
<filter id="filter0_f_127_146" x="0.280957" y="0.802014" width="282.565" height="12.477" filterUnits="userSpaceOnUse" color-interpolation-filters="sRGB">
<feFlood flood-opacity="0" result="BackgroundImageFix"/>
<feBlend mode="normal" in="SourceGraphic" in2="BackgroundImageFix" result="shape"/>
<feGaussianBlur stdDeviation="0.1" result="effect1_foregroundBlur_127_146"/>
</filter>
</defs>
</svg>
