<svg width="155" height="85" viewBox="0 0 155 85" fill="none" xmlns="http://www.w3.org/2000/svg">
<g filter="url(#filter0_f_11_45)">
<path d="M98.16 3.88C97.28 4.84 97 5.8 97 9.72V35.88H88.6V33.84H69.4V35.88H61V3.88H70.56C69.64 4.88 69.4 5.8 69.4 9.72V26H74.76V0.279999H84.32C83.48 1.24 83.16 2.16 83.16 6.12V26H88.6V3.88H98.16ZM34.04 52.12C32.96 52.12 32.12 52.76 30.84 54.24C28.24 57.16 25.2 59.8 20.44 63.24H24.6C24.04 63.4 23.48 65.56 23.48 66.36V83.24H15.44V66.76C12.68 68.64 9.44 70.8 5.64 73.32L1.16 66.2C17.04 57.08 24.2 50.96 26.84 45.92L34.04 52.12ZM75.28 74.4H64.12L65.28 82.32L57.44 83.84L56.08 74.4H42.2V66.36H54.88L54.32 62.52H44.32V54.48H53.16L52.24 48.08L60.8 46.56C60.48 46.92 60.36 47.44 60.36 48.04C60.36 48.52 60.48 49.08 60.56 49.68L61.24 54.48H72.32V62.52H62.4L62.96 66.36H75.28V74.4ZM114.64 55.8C113 61.92 111.84 66.56 108.32 71.44L110.44 73.16L104.96 79.76L102.56 77.64C100.2 79.76 97.28 82 93.64 84.48L88.44 78C91.76 76 94.4 74.12 96.52 72.32L91.88 68.28L97.04 62.24L102.16 66.4C104.12 63.68 104.76 61.44 105 59.8H95.32C93.56 62.16 91.2 65.04 88 68.6L82 63.04C90.72 54.28 92.84 49.64 93.6 45.72L102.2 49.16C100.84 49.4 100.52 50.92 100 51.92H104.64C107.36 51.92 109.96 51.72 110.64 50.92L114.64 55.8ZM154.04 52.12C152.96 52.12 152.12 52.76 150.84 54.24C148.24 57.16 145.2 59.8 140.44 63.24H144.6C144.04 63.4 143.48 65.56 143.48 66.36V83.24H135.44V66.76C132.68 68.64 129.44 70.8 125.64 73.32L121.16 66.2C137.04 57.08 144.2 50.96 146.84 45.92L154.04 52.12Z" fill="white"/>
</g>
<defs>
<filter id="filter0_f_11_45" x="0.960034" y="0.0799683" width="153.28" height="84.6" filterUnits="userSpaceOnUse" color-interpolation-filters="sRGB">
<feFlood flood-opacity="0" result="BackgroundImageFix"/>
<feBlend mode="normal" in="SourceGraphic" in2="BackgroundImageFix" result="shape"/>
<feGaussianBlur stdDeviation="0.1" result="effect1_foregroundBlur_11_45"/>
</filter>
</defs>
</svg>
